<svg width="20" height="20" viewBox="0 0 20 20" fill="none" xmlns="http://www.w3.org/2000/svg">
<path d="M13.4307 13.0671L12.9152 13.8403C12.8123 13.9947 12.6762 14.1264 12.4969 14.1738C11.9095 14.329 10.3499 14.3991 7.9755 12.0247C5.60111 9.65029 5.67119 8.0907 5.82641 7.50326C5.8738 7.32393 6.00549 7.18784 6.15983 7.08495L6.93308 6.56945C7.50878 6.18565 7.66435 5.40782 7.28055 4.83212L5.82014 2.6415C5.48514 2.13901 4.83933 1.94703 4.28424 2.18492L3.62544 2.46726C3.12498 2.68175 2.71674 3.06668 2.47324 3.55368C2.26981 3.96055 2.11213 4.38901 2.09076 4.84341C2.02344 6.27539 2.33743 9.80336 6.26713 13.7331C10.1968 17.6628 13.7248 17.9767 15.1568 17.9094C15.6112 17.888 16.0396 17.7304 16.4465 17.5269C16.9335 17.2834 17.3184 16.8752 17.5329 16.3747L17.8152 15.7159C18.0531 15.1608 17.8612 14.515 17.3587 14.18L15.168 12.7196C14.5923 12.3358 13.8145 12.4914 13.4307 13.0671Z" fill="#898989"/>
</svg>
